<svg width="18" height="10" viewBox="0 0 18 10" fill="none" xmlns="http://www.w3.org/2000/svg">
<path d="M17.7501 1.71249C17.7507 1.89924 17.7095 2.08375 17.6295 2.25247C17.5494 2.4212 17.4326 2.56985 17.2876 2.68749L9.7876 8.72499C9.56393 8.90885 9.28338 9.00935 8.99385 9.00935C8.70432 9.00935 8.42377 8.90885 8.2001 8.72499L0.700101 2.47499C0.44483 2.26282 0.284299 1.95793 0.253825 1.6274C0.22335 1.29687 0.325427 0.967765 0.5376 0.712494C0.749774 0.457223 1.05466 0.296693 1.3852 0.266218C1.71573 0.235744 2.04483 0.33782 2.3001 0.549994L9.0001 6.13749L15.7001 0.737494C15.8836 0.584641 16.107 0.487544 16.3439 0.457695C16.5809 0.427845 16.8214 0.466492 17.0371 0.569061C17.2527 0.671631 17.4345 0.833831 17.5609 1.03647C17.6872 1.23911 17.7529 1.4737 17.7501 1.71249Z" fill="#222222"/>
</svg>
