<svg width="35" height="35" viewBox="0 0 35 35" fill="none" xmlns="http://www.w3.org/2000/svg">
<g clip-path="url(#clip0_76_1093)">
<path d="M27.661 21.6815C26.9444 20.9354 26.0802 20.5365 25.1642 20.5365C24.2556 20.5365 23.3839 20.928 22.6378 21.6741L20.3035 24.001C20.1115 23.8976 19.9194 23.8016 19.7347 23.7055C19.4688 23.5726 19.2176 23.447 19.0034 23.314C16.8169 21.9253 14.8298 20.1155 12.9239 17.7738C12.0005 16.6066 11.38 15.6242 10.9294 14.6269C11.5352 14.0729 12.0966 13.4967 12.6432 12.9427C12.8501 12.7359 13.0569 12.5216 13.2637 12.3148C14.815 10.7635 14.815 8.75427 13.2637 7.203L11.2471 5.18635C11.0181 4.95735 10.7817 4.72097 10.5601 4.48459C10.1169 4.02659 9.65149 3.55383 9.17133 3.11061C8.45479 2.40146 7.5979 2.02472 6.69669 2.02472C5.79548 2.02472 4.92381 2.40146 4.18511 3.11061C4.17773 3.11799 4.17773 3.11799 4.17034 3.12538L1.65876 5.65912C0.713229 6.60465 0.173979 7.75702 0.055787 9.09407C-0.121501 11.2511 0.51378 13.2603 1.00132 14.5752C2.19801 17.8033 3.98567 20.7951 6.65237 24.001C9.88787 27.8644 13.7808 30.9152 18.2278 33.0648C19.9268 33.87 22.1946 34.8229 24.7283 34.9855C24.8835 34.9928 25.046 35.0002 25.1937 35.0002C26.9001 35.0002 28.3332 34.3871 29.456 33.1683C29.4634 33.1535 29.4782 33.1461 29.4856 33.1313C29.8697 32.6659 30.3129 32.2449 30.7783 31.7943C31.0959 31.4914 31.4209 31.1738 31.7386 30.8414C32.4699 30.0805 32.854 29.1941 32.854 28.2855C32.854 27.3695 32.4625 26.4904 31.7164 25.7517L27.661 21.6815ZM30.3055 29.46C30.2981 29.46 30.2981 29.4674 30.3055 29.46C30.0174 29.7702 29.7219 30.051 29.4043 30.3612C28.9241 30.8192 28.4366 31.2994 27.9786 31.8386C27.2325 32.6364 26.3535 33.0131 25.2011 33.0131C25.0903 33.0131 24.9721 33.0131 24.8613 33.0057C22.6674 32.8654 20.6286 32.0085 19.0994 31.2772C14.9184 29.2532 11.2471 26.3796 8.19625 22.7378C5.67729 19.7018 3.99305 16.8947 2.87762 13.8808C2.19063 12.0415 1.93947 10.6084 2.05027 9.25658C2.12414 8.3923 2.45656 7.67577 3.06968 7.06265L5.58864 4.54368C5.9506 4.20388 6.33473 4.01921 6.71146 4.01921C7.17685 4.01921 7.55358 4.29991 7.78996 4.5363C7.79735 4.54368 7.80474 4.55107 7.81213 4.55846C8.26273 4.97951 8.69118 5.41535 9.14178 5.88073C9.37078 6.11711 9.60716 6.35349 9.84355 6.59727L11.8602 8.61391C12.6432 9.39693 12.6432 10.1209 11.8602 10.9039C11.646 11.1181 11.4391 11.3323 11.2249 11.5392C10.6044 12.1744 10.0134 12.7654 9.37078 13.3416C9.35601 13.3564 9.34123 13.3637 9.33385 13.3785C8.69856 14.0138 8.81676 14.6343 8.94972 15.0554C8.95711 15.0775 8.9645 15.0997 8.97188 15.1218C9.49636 16.3924 10.2351 17.5891 11.3579 19.0148L11.3653 19.0222C13.4041 21.5338 15.5537 23.4913 17.9249 24.9909C18.2278 25.1829 18.538 25.3381 18.8335 25.4858C19.0994 25.6188 19.3506 25.7443 19.5648 25.8773C19.5944 25.8921 19.6239 25.9142 19.6535 25.929C19.9046 26.0546 20.141 26.1137 20.3848 26.1137C20.9979 26.1137 21.382 25.7296 21.5076 25.604L24.034 23.0776C24.2851 22.8265 24.684 22.5236 25.1494 22.5236C25.6074 22.5236 25.9841 22.8117 26.2131 23.0629C26.2205 23.0702 26.2205 23.0702 26.2279 23.0776L30.2981 27.1479C31.059 27.9013 31.059 28.677 30.3055 29.46Z" fill="white"/>
<path d="M18.9146 8.32555C20.85 8.65058 22.6081 9.56656 24.0116 10.9701C25.4151 12.3736 26.3237 14.1317 26.6562 16.0671C26.7374 16.5547 27.1585 16.8945 27.6386 16.8945C27.6977 16.8945 27.7494 16.8871 27.8085 16.8797C28.3552 16.791 28.7171 16.2739 28.6285 15.7273C28.2296 13.3856 27.1215 11.2508 25.4299 9.55918C23.7383 7.86756 21.6035 6.75951 19.2618 6.36061C18.7152 6.27197 18.2055 6.63393 18.1094 7.17318C18.0134 7.71243 18.368 8.23691 18.9146 8.32555Z" fill="white"/>
<path d="M34.9593 15.4395C34.3019 11.5834 32.4847 8.07462 29.6924 5.28234C26.9001 2.49006 23.3913 0.672859 19.5353 0.0154171C18.996 -0.0806137 18.4863 0.288736 18.3903 0.827986C18.3017 1.37462 18.6636 1.88433 19.2103 1.98036C22.6526 2.56393 25.7921 4.19645 28.2889 6.68587C30.7857 9.18267 32.4108 12.3221 32.9944 15.7645C33.0756 16.252 33.4967 16.5918 33.9768 16.5918C34.0359 16.5918 34.0877 16.5844 34.1467 16.577C34.686 16.4958 35.0553 15.9787 34.9593 15.4395Z" fill="white"/>
</g>
<defs>
<clipPath id="clip0_76_1093">
<rect width="35" height="35" fill="white"/>
</clipPath>
</defs>
</svg>
