<svg width="35" height="35" viewBox="0 0 35 35" fill="none" xmlns="http://www.w3.org/2000/svg">
<path d="M26.7969 0H8.20312C3.67992 0 0 3.67992 0 8.20312V26.7969C0 31.3201 3.67992 35 8.20312 35H26.7969C31.3201 35 35 31.3201 35 26.7969V8.20312C35 3.67992 31.3201 0 26.7969 0ZM32.2656 26.7969C32.2656 29.8124 29.8124 32.2656 26.7969 32.2656H8.20312C5.18757 32.2656 2.73438 29.8124 2.73438 26.7969V8.20312C2.73438 5.18757 5.18757 2.73438 8.20312 2.73438H26.7969C29.8124 2.73438 32.2656 5.18757 32.2656 8.20312V26.7969ZM17.5 9.77539C13.2406 9.77539 9.77539 13.2406 9.77539 17.5C9.77539 21.7594 13.2406 25.2246 17.5 25.2246C21.7594 25.2246 25.2246 21.7594 25.2246 17.5C25.2246 13.2406 21.7594 9.77539 17.5 9.77539ZM17.5 22.4902C14.7483 22.4902 12.5098 20.2517 12.5098 17.5C12.5098 14.7483 14.7483 12.5098 17.5 12.5098C20.2517 12.5098 22.4902 14.7483 22.4902 17.5C22.4902 20.2517 20.2517 22.4902 17.5 22.4902ZM28.2551 8.45387C28.2551 9.39754 27.4901 10.1628 26.5461 10.1628C25.6025 10.1628 24.8372 9.39754 24.8372 8.45387C24.8372 7.50992 25.6025 6.74488 26.5461 6.74488C27.4901 6.74488 28.2551 7.50992 28.2551 8.45387Z" fill="white"/>
</svg>
