<svg width="35" height="35" viewBox="0 0 35 35" fill="none" xmlns="http://www.w3.org/2000/svg">
<g clip-path="url(#clip0_45_140)">
<path d="M34.4596 3.47671C34.0321 2.95387 33.3917 2.66602 32.6563 2.66602C32.2566 2.66602 31.8331 2.75013 31.3978 2.91649L1.77099 14.226C0.198724 14.826 -0.0130295 15.7264 0.000588989 16.2097C0.0142074 16.693 0.276697 17.5801 1.88047 18.0904C1.89008 18.0933 1.8997 18.0963 1.90931 18.0989L8.05471 19.8576L11.3781 29.3611C11.8313 30.6568 12.8484 31.4616 14.033 31.4616C14.7798 31.4616 15.5144 31.1486 16.1574 30.5569L19.9586 27.057L25.4719 31.4963C25.4725 31.4968 25.4733 31.4971 25.4738 31.4976L25.5261 31.5398C25.5309 31.5436 25.536 31.5476 25.5408 31.5513C26.1537 32.0266 26.8226 32.2776 27.476 32.2779H27.4762C28.7529 32.2779 29.7695 31.3329 30.0656 29.8706L34.9199 5.90107C35.1149 4.93896 34.9514 4.07806 34.4596 3.47671ZM10.1106 19.5235L21.9669 13.4665L14.5844 21.311C14.4634 21.4395 14.3777 21.5968 14.3355 21.7679L12.912 27.5341L10.1106 19.5235ZM14.7681 29.0482C14.7189 29.0933 14.6695 29.1336 14.6201 29.1708L15.9409 23.8216L18.3433 25.7563L14.7681 29.0482ZM32.91 5.49385L28.0557 29.4637C28.009 29.6931 27.8597 30.2269 27.476 30.2269C27.2864 30.2269 27.0482 30.1235 26.8044 29.9358L20.557 24.9055C20.5562 24.9047 20.5551 24.9039 20.5541 24.9034L16.8368 21.91L27.5128 10.5658C27.8546 10.2026 27.8856 9.64641 27.5863 9.24747C27.2867 8.84853 26.7438 8.72303 26.2997 8.95L8.74044 17.9206L2.51146 16.1384L32.1292 4.83242C32.3794 4.73682 32.5541 4.7168 32.6563 4.7168C32.7191 4.7168 32.8307 4.72427 32.8721 4.77528C32.9266 4.84177 32.996 5.06847 32.91 5.49385Z" fill="white"/>
</g>
<defs>
<clipPath id="clip0_45_140">
<rect width="35" height="35" fill="white"/>
</clipPath>
</defs>
</svg>
