<svg width="30" height="30" viewBox="0 0 30 30" fill="none" xmlns="http://www.w3.org/2000/svg">
<path d="M15 1.875C12.4041 1.875 9.86654 2.64477 7.70815 4.08696C5.54975 5.52916 3.86749 7.579 2.87409 9.97728C1.88069 12.3756 1.62077 15.0146 2.1272 17.5606C2.63363 20.1066 3.88367 22.4452 5.71923 24.2808C7.55479 26.1163 9.89345 27.3664 12.4394 27.8728C14.9854 28.3792 17.6244 28.1193 20.0227 27.1259C22.421 26.1325 24.4709 24.4503 25.913 22.2919C27.3552 20.1335 28.125 17.5959 28.125 15C28.125 11.519 26.7422 8.18064 24.2808 5.71922C21.8194 3.25781 18.481 1.875 15 1.875ZM9.37501 24.7312V22.8562C9.33384 22.0646 9.60573 21.2885 10.132 20.6956C10.6582 20.1027 11.3965 19.7406 12.1875 19.6875H17.8125C18.6052 19.7406 19.345 20.104 19.8715 20.6989C20.398 21.2939 20.6687 22.0724 20.625 22.8656V24.7406C18.9173 25.7354 16.9763 26.2595 15 26.2595C13.0237 26.2595 11.0827 25.7354 9.37501 24.7406V24.7312ZM22.5 23.3625V22.7906C22.5256 21.5125 22.049 20.2753 21.1726 19.3445C20.2962 18.4138 19.0899 17.8638 17.8125 17.8125H12.1875C10.9093 17.8614 9.70154 18.4107 8.82465 19.342C7.94776 20.2732 7.47201 21.5118 7.50001 22.7906V23.3438C5.80178 21.8248 4.60478 19.826 4.0674 17.6119C3.53002 15.3978 3.67758 13.0727 4.49057 10.9442C5.30355 8.81582 6.74364 6.98441 8.62026 5.69235C10.4969 4.40029 12.7216 3.7085 15 3.7085C17.2784 3.7085 19.5031 4.40029 21.3797 5.69235C23.2564 6.98441 24.6965 8.81582 25.5094 10.9442C26.3224 13.0727 26.47 15.3978 25.9326 17.6119C25.3952 19.826 24.1982 21.8248 22.5 23.3438V23.3625Z" fill="#222222"/>
<path d="M15 6.5625C14.0729 6.5625 13.1666 6.83742 12.3958 7.35249C11.6249 7.86756 11.0241 8.59964 10.6693 9.45617C10.3145 10.3127 10.2217 11.2552 10.4026 12.1645C10.5834 13.0738 11.0299 13.909 11.6854 14.5646C12.341 15.2201 13.1762 15.6666 14.0855 15.8474C14.9948 16.0283 15.9373 15.9355 16.7938 15.5807C17.6504 15.2259 18.3824 14.6251 18.8975 13.8542C19.4126 13.0834 19.6875 12.1771 19.6875 11.25C19.6875 10.0068 19.1936 8.81451 18.3146 7.93544C17.4355 7.05636 16.2432 6.5625 15 6.5625ZM15 14.0625C14.4437 14.0625 13.9 13.8975 13.4375 13.5885C12.9749 13.2795 12.6145 12.8402 12.4016 12.3263C12.1887 11.8124 12.133 11.2469 12.2415 10.7013C12.3501 10.1557 12.6179 9.6546 13.0113 9.26126C13.4046 8.86793 13.9057 8.60006 14.4513 8.49154C14.9969 8.38302 15.5624 8.43872 16.0763 8.65159C16.5902 8.86446 17.0295 9.22495 17.3385 9.68746C17.6476 10.15 17.8125 10.6937 17.8125 11.25C17.8125 11.9959 17.5162 12.7113 16.9887 13.2387C16.4613 13.7662 15.7459 14.0625 15 14.0625Z" fill="#222222"/>
</svg>
