<svg width="35" height="35" viewBox="0 0 35 35" fill="none" xmlns="http://www.w3.org/2000/svg">
<g clip-path="url(#clip0_45_136)">
<path d="M17.7115 28.4375C22.7748 28.4375 20.9694 25.2321 21.3602 24.3104C21.3544 23.6221 21.3485 22.96 21.3719 22.5575C21.6927 22.6479 22.4496 23.0315 24.0129 24.551C26.4265 26.9864 27.0433 28.4375 28.9931 28.4375H32.5821C33.7196 28.4375 34.3117 27.9664 34.6077 27.5712C34.8935 27.1892 35.1735 26.5183 34.8673 25.4742C34.0667 22.96 29.3971 18.6185 29.1069 18.1606C29.1506 18.076 29.2206 17.9637 29.2571 17.9054H29.2542C30.1758 16.6877 33.6933 11.4173 34.211 9.30854C34.2125 9.30562 34.214 9.30125 34.214 9.29687C34.494 8.33437 34.2373 7.71021 33.9719 7.35729C33.5723 6.82938 32.9365 6.5625 32.0775 6.5625H28.4885C27.2869 6.5625 26.3754 7.16771 25.9146 8.27167C25.1431 10.2331 22.976 14.2669 21.3515 15.6946C21.3019 13.6719 21.3354 12.1275 21.3617 10.9798C21.4142 8.74125 21.5833 6.5625 19.2602 6.5625H13.6194C12.164 6.5625 10.7713 8.15208 12.2792 10.0392C13.5975 11.6929 12.7531 12.6146 13.0375 17.2025C11.9292 16.014 9.9575 12.8042 8.56333 8.70187C8.1725 7.59208 7.58042 6.56396 5.91354 6.56396H2.32458C0.869167 6.56396 0 7.35729 0 8.68583C0 11.6696 6.60479 28.4375 17.7115 28.4375ZM5.91354 8.75146C6.23 8.75146 6.26208 8.75146 6.49688 9.41792C7.92458 13.6223 11.1271 19.8435 13.4663 19.8435C15.2235 19.8435 15.2235 18.0425 15.2235 17.3644L15.2221 11.9656C15.1258 10.1792 14.4754 9.28958 14.0481 8.75L19.164 8.75583C19.1669 8.78062 19.1348 14.7277 19.1785 16.1685C19.1785 18.2146 20.8031 19.3871 23.3392 16.8204C26.0152 13.8002 27.8658 9.28521 27.9402 9.10146C28.0496 8.83896 28.1444 8.75 28.4885 8.75H32.0775H32.0921C32.0906 8.75437 32.0906 8.75875 32.0892 8.76312C31.761 10.2944 28.5221 15.174 27.4385 16.6892C27.421 16.7125 27.405 16.7373 27.389 16.7621C26.9121 17.5408 26.5242 18.4012 27.4546 19.6117H27.456C27.5406 19.7137 27.7608 19.9529 28.0817 20.2854C29.0792 21.315 32.5004 24.8354 32.8037 26.2354C32.6025 26.2675 32.3838 26.2442 28.9931 26.2514C28.2713 26.2514 27.7069 25.1723 25.5529 22.9994C23.6162 21.1152 22.3592 20.3452 21.2144 20.3452C18.9919 20.3452 19.1537 22.1492 19.1742 24.3308C19.1815 26.6962 19.1669 25.9481 19.1829 26.0969C19.0531 26.1479 18.6813 26.25 17.7115 26.25C8.45833 26.25 2.4325 11.5631 2.20062 8.75583C2.28083 8.74854 3.38479 8.75292 5.91354 8.75146Z" fill="white"/>
</g>
<defs>
<clipPath id="clip0_45_136">
<rect width="35" height="35" fill="white"/>
</clipPath>
</defs>
</svg>
